<?xml version="1.0" standalone="no"?>
<!DOCTYPE svg PUBLIC "-//W3C//DTD SVG 20010904//EN"
 "http://www.w3.org/TR/2001/REC-SVG-20010904/DTD/svg10.dtd">
<svg version="1.0" xmlns="http://www.w3.org/2000/svg"
 width="120.000000pt" height="120.000000pt" viewBox="0 0 120.000000 120.000000"
 preserveAspectRatio="xMidYMid meet">
<metadata>
Created by potrace 1.11, written by Peter Selinger 2001-2013
</metadata>
<g transform="translate(0.000000,120.000000) scale(0.100000,-0.100000)"
fill="#000000" stroke="none">
<path d="M82 1190 c-30 -13 -46 -29 -66 -67 -14 -28 -16 -89 -16 -523 0 -537
0 -532 58 -575 26 -19 45 -20 535 -22 389 -2 513 0 530 10 29 16 57 47 68 75
5 13 9 244 9 514 0 535 0 530 -58 573 -26 19 -44 20 -532 22 -298 1 -514 -2
-528 -7z"/>
</g>
</svg>
